<?xml version="1.0" standalone="no"?><!DOCTYPE svg PUBLIC "-//W3C//DTD SVG 1.1//EN" "http://www.w3.org/Graphics/SVG/1.1/DTD/svg11.dtd"><svg t="1525239612170" class="icon" style="" viewBox="0 0 1024 1024" version="1.1" xmlns="http://www.w3.org/2000/svg" p-id="1534" xmlns:xlink="http://www.w3.org/1999/xlink" width="128" height="128"><defs><style type="text/css"></style></defs><path d="M510.118619 438.866285q135.419768 0 253.144089-24.575232t185.722196-72.573732l0 97.148964q0 39.422768-58.846161 73.149714t-159.995 53.43833-219.993125 19.711384-219.993125-19.711384-159.995-53.43833-58.846161-73.149714l0-97.148964q67.997875 47.9985 185.722196 72.573732t253.144089 24.575232zM510.118619 877.732571q135.419768 0 253.144089-24.575232t185.722196-72.573732l0 97.148964q0 39.422768-58.846161 73.149714t-159.995 53.43833-219.993125 19.711384-219.993125-19.711384-159.995-53.43833-58.846161-73.149714l0-97.148964q67.997875 47.9985 185.722196 72.573732t253.144089 24.575232zM510.118619 658.283429q135.419768 0 253.144089-24.575232t185.722196-72.573732l0 97.148964q0 39.422768-58.846161 73.149714t-159.995 53.43833-219.993125 19.711384-219.993125-19.711384-159.995-53.43833-58.846161-73.149714l0-97.148964q67.997875 47.9985 185.722196 72.573732t253.144089 24.575232zM510.118619 0.031999q118.844286 0 219.993125 19.711384t159.995 53.43833 58.846161 73.149714l0 73.149714q0 39.422768-58.846161 73.149714t-159.995 53.43833-219.993125 19.711384-219.993125-19.711384-159.995-53.43833-58.846161-73.149714l0-73.149714q0-39.422768 58.846161-73.149714t159.995-53.43833 219.993125-19.711384z" p-id="1535"></path></svg>