<?xml version="1.0" standalone="no"?><!DOCTYPE svg PUBLIC "-//W3C//DTD SVG 1.1//EN" "http://www.w3.org/Graphics/SVG/1.1/DTD/svg11.dtd"><svg class="icon" width="200px" height="200.00px" viewBox="0 0 1024 1024" version="1.1" xmlns="http://www.w3.org/2000/svg"><path fill="#515151" d="M478.72 670.208v-128c0-15.36-10.24-30.208-25.6-30.208h-117.76c-7.68 0-14.336-2.048-19.968-6.656l-9.728-9.728c-4.608-5.632-6.656-11.776-6.656-19.456V358.4c0-15.36-14.336-26.112-29.696-26.112h-128c-15.36 0-33.28 10.24-33.28 26.112v128c0 15.36 17.92 25.6 33.28 25.6h127.488c7.68 0 14.336 4.096 19.968 9.216l1.536 0.512c4.608 5.632 9.216 13.824 9.216 20.992v128c0 15.36 11.264 32.768 26.112 32.768h128c14.336 0 25.088-17.408 25.088-33.28z m416.256-158.208h-117.76c-7.68 0-14.848-3.072-19.968-8.192l-11.264-10.24c-5.632-5.632-9.216-12.288-9.216-19.968v-117.76c0-15.36-11.264-24.064-27.136-24.064h-127.488c-15.36 0-25.088 9.216-25.088 24.064v128c0 15.36 9.728 27.648 25.088 27.648h128c7.68 0 14.336 3.584 19.968 8.192h-0.512c5.632 5.632 7.68 12.288 7.68 19.968v128c0 15.36 13.824 23.552 29.184 23.552h128c15.36 0 22.016-7.68 22.016-23.552v-127.488c0.512-15.36-6.656-28.16-21.504-28.16z m-537.6-33.28h128c15.36 0 26.112-15.36 26.112-30.208V319.488c0-7.68 3.584-14.336 9.216-19.968l0.512-2.048c5.632-5.632 12.288-10.24 19.968-10.24h128c15.36 0 33.28-8.192 33.28-23.552v-128c0-15.36-17.92-28.16-33.28-28.16h-128c-15.36 0-29.696 12.288-29.696 28.16v117.76c0 7.68-2.048 14.336-7.68 19.968L494.08 281.6c-5.632 5.632-11.776 6.144-19.456 6.144h-117.76c-15.36 0-25.6 16.384-25.6 32.768v128c0.512 14.848 10.24 30.208 26.112 30.208z m315.904 67.072h-128c-15.36 0-33.28 15.36-33.28 30.208v117.76c0 7.68-0.512 14.336-5.632 19.968l-9.216 12.288c-5.632 5.632-11.264 10.24-18.944 10.24h-117.76c-15.36 0-29.184 8.192-29.184 23.552v128c0 15.36 13.312 28.16 29.184 28.16h128c15.36 0 23.04-12.288 23.04-28.16v-127.488c0-7.68 5.632-14.336 10.24-19.968l1.536 2.048c5.632-5.632 13.824-6.144 20.992-6.144h128c15.36 0 29.696-17.408 29.696-32.768v-128c1.536-14.336-12.8-29.696-28.672-29.696z"  /></svg>