<?xml version="1.0" standalone="no"?><!DOCTYPE svg PUBLIC "-//W3C//DTD SVG 1.1//EN" "http://www.w3.org/Graphics/SVG/1.1/DTD/svg11.dtd"><svg class="icon" width="200px" height="200.00px" viewBox="0 0 1024 1024" version="1.1" xmlns="http://www.w3.org/2000/svg"><path fill="#515151" d="M686.592 642.56c-5.632 97.792-60.416 186.368-145.408 235.52-138.752 79.872-315.904 32.768-395.776-104.96-67.584-117.248-43.008-262.144 51.2-352.768 0 11.264 2.048 38.912 9.728 68.096-53.248 72.704-61.952 172.544-14.336 254.976 64.512 111.616 208.384 149.504 321.024 84.48 68.608-39.424 113.152-110.08 118.272-188.928-10.752-5.632-19.968-14.848-26.112-25.6-18.432-32.256-7.68-73.216 24.576-91.648 31.744-18.432 73.216-7.68 92.16 24.576 18.432 32.256 7.68 73.216-24.576 91.648-3.072 1.536-7.168 3.072-10.752 4.608z m-339.456 22.016c-83.968-53.248-135.168-146.432-134.656-245.76-0.512-160.768 128-290.816 287.744-290.816 135.168 0 248.832 93.696 279.552 220.672-9.728-5.12-34.304-17.408-62.976-25.088-36.864-82.432-118.784-140.288-214.016-140.288-129.536 0-233.984 105.984-233.984 236.032 0 79.36 39.424 153.6 105.472 197.12 30.208-22.016 72.192-15.36 94.208 14.848 8.704 11.776 12.8 25.6 12.8 39.936 0 36.864-29.696 67.072-67.072 67.584h-0.512c-37.376 0-67.584-30.208-67.584-67.584 0.512-2.048 0.512-4.608 1.024-6.656z m146.432-312.32c87.552-44.544 192-42.496 277.504 7.68 138.752 80.384 186.88 257.024 107.52 394.752-68.096 117.76-207.36 169.472-333.312 131.584 19.456-11.776 37.376-26.112 53.76-41.984 90.112 10.752 182.272-31.744 230.4-114.688 64.512-111.616 25.088-255.488-87.552-320.512-66.56-38.912-148.48-42.496-218.112-9.728 2.048 14.848-0.512 30.208-8.192 43.52-18.944 31.744-59.904 43.008-91.648 24.576l-0.512-0.512c-32.256-18.432-43.52-59.392-25.088-91.648 18.432-32.256 58.88-43.008 91.136-25.088 1.536 0.512 2.56 1.536 4.096 2.048z"  /></svg>