<?xml version="1.0" standalone="no"?><!DOCTYPE svg PUBLIC "-//W3C//DTD SVG 1.1//EN" "http://www.w3.org/Graphics/SVG/1.1/DTD/svg11.dtd"><svg class="icon" width="200px" height="200.00px" viewBox="0 0 1024 1024" version="1.1" xmlns="http://www.w3.org/2000/svg"><path fill="#515151" d="M507.904 177.152c42.496 0 78.848-36.352 78.848-78.848S552.448 19.456 507.904 19.456c-42.496 0-78.848 36.352-78.848 78.848s35.84 78.848 78.848 78.848M224.256 759.296c0-44.544-36.352-82.944-82.944-82.944s-82.944 36.352-82.944 82.944c0 47.104 36.352 83.456 82.944 83.456s82.944-38.4 82.944-83.456m656.896-82.944c-45.056 0-82.944 36.352-82.944 82.944 0 47.104 36.352 83.456 82.944 83.456s82.944-36.352 82.944-83.456c0-46.592-36.352-82.944-82.944-82.944M646.656 87.552c2.048 6.144 2.048 14.848 2.048 21.504 0 21.504-4.096 40.448-12.8 59.904 153.6 53.248 264.704 196.096 264.704 369.152 0 23.552-2.048 47.104-6.144 70.656 27.648 2.048 55.296 12.8 76.8 29.696 6.144-31.744 10.752-64 10.752-98.304-5.12-216.064-143.36-395.264-335.36-452.608"  /><path fill="#515151" d="M343.552 599.552c-34.304-89.6 10.752-192 100.352-228.352C464.896 362.496 486.4 358.4 507.904 358.4c55.296 0 108.544 27.648 142.848 74.752l-80.896 40.448c-8.704-8.704-16.896-14.848-27.648-19.456-21.504-8.704-45.056-10.752-66.048-2.048-44.544 16.896-66.048 68.096-49.152 111.104 12.8 34.304 47.104 55.296 80.896 55.296 10.752 0 21.504-2.048 31.744-6.144 21.504-8.704 38.4-25.6 47.104-45.056s8.704-38.4 4.096-57.344l80.896-40.448c34.304 89.6-8.704 192-100.352 228.352-89.088 35.84-191.488-8.704-227.84-98.304m424.448 225.792a386.10432 386.10432 0 0 1-260.096 100.352c-42.496 0-82.944-6.144-121.856-19.456l66.048-149.504c19.456 4.096 36.352 6.656 57.344 6.656 27.648 0 55.296-4.096 82.944-14.848 117.248-45.056 175.104-177.152 128-294.4-45.056-117.248-177.152-175.104-294.4-128-38.4 14.848-70.144 40.448-93.696 70.656L181.248 330.752c45.056-76.8 117.248-134.144 202.752-162.304-8.704-16.896-12.8-38.4-12.8-59.904 0-8.704 0-14.848 2.048-21.504-192 57.344-332.8 236.544-332.8 448 0 34.304 4.096 66.048 10.752 98.304 21.504-16.896 47.104-27.648 76.8-29.696-4.096-23.552-6.144-44.544-6.144-70.656 0-61.952 14.848-117.248 38.4-170.496l149.504 66.048c-31.744 57.344-38.4 125.952-12.8 189.952 21.504 55.296 64 98.304 115.2 121.344L348.16 887.296c-36.352-16.896-68.096-38.4-98.304-64-16.896 21.504-38.4 40.448-66.048 49.152 85.504 80.896 198.656 130.048 324.096 130.048s241.152-49.152 324.096-130.048c-23.552-8.192-47.104-25.6-64-47.104"  /></svg>