<?xml version="1.0" standalone="no"?><!DOCTYPE svg PUBLIC "-//W3C//DTD SVG 1.1//EN" "http://www.w3.org/Graphics/SVG/1.1/DTD/svg11.dtd"><svg class="icon" width="200px" height="200.00px" viewBox="0 0 1024 1024" version="1.1" xmlns="http://www.w3.org/2000/svg"><path fill="#515151" d="M551.424 492.032c23.552 0 42.496-19.968 42.496-43.52 0-24.064-18.944-43.52-42.496-43.52s-42.496 19.968-42.496 43.52c0 24.064 18.944 43.52 42.496 43.52m78.336-5.12c0 69.12-54.784 125.44-122.368 125.44s-122.368-55.808-122.368-125.44c0-69.12 54.784-125.44 122.368-125.44s122.368 56.32 122.368 125.44"  /><path fill="#515151" d="M322.048 484.864c0 103.936 81.92 187.904 183.808 187.904 101.376 0 183.808-84.48 183.808-187.904 0-103.936-81.92-187.904-183.808-187.904C404.48 296.96 322.048 380.928 322.048 484.864zM205.824 517.12v16.384c19.456 170.496 194.56 300.032 270.848 341.504v-139.264C365.056 722.432 275.456 631.808 261.12 517.12H205.824z m544.768-60.928h55.808V217.6s-172.032-38.912-270.848-74.752v91.648c113.152 13.824 202.24 105.984 215.04 221.696zM150.528 395.776V167.424s166.4-27.648 355.328-103.424c173.568 75.776 356.352 103.424 356.352 103.424V517.12h-112.128c-14.336 114.176-102.912 204.288-214.528 218.624v139.264c72.704-39.936 228.352-161.28 263.68-297.472h57.856c-41.472 196.608-258.56 324.608-350.72 381.952-80.896-50.688-328.192-184.32-355.328-420.352V456.192h110.592C273.408 339.968 363.52 247.296 477.184 233.984V142.848c-87.552 32.768-270.848 74.752-270.848 74.752v178.176H150.528z"  /></svg>