<?xml version="1.0" standalone="no"?><!DOCTYPE svg PUBLIC "-//W3C//DTD SVG 1.1//EN" "http://www.w3.org/Graphics/SVG/1.1/DTD/svg11.dtd"><svg class="icon" width="200px" height="200.00px" viewBox="0 0 1024 1024" version="1.1" xmlns="http://www.w3.org/2000/svg"><path fill="#707070" d="M452.231529 480.632471c-22.226824 0-43.264-3.252706-59.25647-9.155765L67.779765 351.352471c-27.693176-10.24-31.834353-25.449412-31.819294-33.611295 0-8.161882 4.141176-23.371294 31.834353-33.581176l325.195294-120.124235c31.984941-11.806118 86.528-11.806118 118.512941 0l325.210353 120.124235c27.678118 10.224941 31.819294 25.434353 31.819294 33.581176 0 8.161882-4.141176 23.386353-31.819294 33.596236l-325.210353 120.139294c-16.022588 5.903059-37.044706 9.155765-59.27153 9.155765zM383.156706 1022.494118a68.472471 68.472471 0 0 1-23.762824-4.412236L74.586353 909.432471C40.839529 896.722824 15.058824 857.283765 15.058824 817.724235v-362.465882c0-33.114353 18.567529-55.386353 46.185411-55.386353 7.107765 0 14.622118 1.475765 22.377412 4.412235l289.129412 108.664471c35.177412 13.251765 63.954824 53.549176 63.954823 91.723294v362.465882c0 32.075294-23.205647 55.356235-53.549176 55.356236zM528.790588 1022.494118C499.937882 1022.494118 481.882353 999.725176 481.882353 967.137882v-362.465882c0-39.213176 24.064-78.652235 58.789647-91.723294l284.943059-108.649412c7.800471-2.936471 18.251294-4.412235 25.630117-4.412235 29.153882 0 52.299294 22.768941 52.299295 55.386353v362.465882c0 38.520471-30.177882 78.802824-64.466824 91.723294l-286.900706 108.634353a68.111059 68.111059 0 0 1-23.386353 4.397177zM885.428706 296.222118a32.828235 32.828235 0 0 1-32.783059-32.783059c0-4.502588 0.918588-8.312471 1.656471-11.384471a54.814118 54.814118 0 0 0 0.798117-3.644235c0.813176-5.150118 3.328-10.074353 6.505412-16.323765 6.023529-11.866353 14.290824-28.129882 14.290824-53.519059 0-14.893176-1.520941-26.277647-4.080942-36.487529l-40.82447 20.916706a14.456471 14.456471 0 1 1-20.35953-17.302588l42.315295-131.252706a14.546824 14.546824 0 0 1 18.191058-9.336471l131.252706 42.300235a14.456471 14.456471 0 1 1 2.168471 26.624l-36.894118 18.898824c2.213647 14.727529 3.328 29.530353 3.328 44.167529 0 60.310588-20.555294 110.275765-61.093647 148.510118a33.325176 33.325176 0 0 1-24.470588 10.616471z" /></svg>