<?xml version="1.0" standalone="no"?><!DOCTYPE svg PUBLIC "-//W3C//DTD SVG 1.1//EN" "http://www.w3.org/Graphics/SVG/1.1/DTD/svg11.dtd"><svg class="icon" width="200px" height="200.00px" viewBox="0 0 1024 1024" version="1.1" xmlns="http://www.w3.org/2000/svg"><path fill="#515151" d="M803.328 480.768c0-79.872-65.024-144.896-144.896-144.896-40.96 0-79.872 17.408-107.52 47.616L452.608 329.216c10.752-57.344-26.624-112.128-83.968-123.392-57.344-10.752-112.128 27.136-122.88 83.968-10.752 57.344 26.624 112.128 83.968 123.392 6.656 1.024 13.312 2.048 19.456 2.048 27.648 0 52.736-10.752 71.68-28.16l98.816 54.784c-9.216 32.256-6.656 66.56 6.656 97.792l-98.304 73.216c-16.896-12.8-37.376-19.456-58.88-19.456-54.784 0-98.816 44.032-98.816 98.816s44.032 98.816 98.816 98.816 98.816-44.032 98.816-98.816c0-8.704-1.024-16.896-3.072-24.576l100.864-75.264c61.44 51.712 152.576 43.52 204.288-17.408 21.504-27.136 33.28-59.904 33.28-94.208"  /><path fill="#515151" d="M98.816 490.496c0-212.48 173.056-385.536 385.536-385.536s385.536 173.056 385.536 385.536-173.056 385.536-385.536 385.536-385.536-173.056-385.536-385.536m907.264 449.024l-145.92-143.36c70.144-86.016 108.544-194.048 108.544-305.152 0-267.264-216.576-484.352-484.352-484.352S0 223.232 0 490.496s216.576 484.352 484.352 484.352c111.616 0 219.648-38.4 305.664-109.056l146.944 143.872c9.728 9.216 22.016 14.336 34.816 14.336 27.136 0 49.152-22.016 49.664-49.152-0.512-13.312-6.144-26.112-15.36-35.328"  /></svg>