<?xml version="1.0" standalone="no"?><!DOCTYPE svg PUBLIC "-//W3C//DTD SVG 1.1//EN" "http://www.w3.org/Graphics/SVG/1.1/DTD/svg11.dtd"><svg class="icon" width="200px" height="200.00px" viewBox="0 0 1024 1024" version="1.1" xmlns="http://www.w3.org/2000/svg"><path fill="#515151" d="M805.888 712.192c-45.568 0-87.04 28.16-103.424 70.656l-354.304-81.92c1.536-7.168 2.048-14.848 2.048-22.016 0-45.568-28.16-86.528-70.144-103.424L332.8 294.4c24.576-5.12 45.568-20.48 57.344-41.984l332.288-19.968c6.656 10.752 15.36 20.48 25.6 27.648l-40.96 180.224c-31.232 3.584-57.856 24.576-68.608 54.784l-107.52-0.512c-1.024-1.536-1.536-2.56-2.56-4.096l25.088-80.384c24.064-6.144 40.96-28.16 41.472-53.248 0-30.72-24.576-55.296-55.296-55.296-30.72 0-55.296 25.088-55.296 55.296 0 15.36 6.144 29.184 16.384 39.424l-22.528 72.704c-27.648 3.584-49.152 26.112-49.152 54.784 0 30.72 24.576 55.296 55.296 55.296 19.456 0 36.864-10.24 46.592-25.6l109.568 2.048c12.8 31.232 43.52 51.2 77.312 51.2 46.08 0 82.944-37.376 83.456-83.456 0-28.16-14.336-54.784-38.4-70.144l40.96-180.224c42.496-4.096 75.264-39.936 74.752-82.944 0-46.08-37.376-82.944-83.456-83.456-40.96 0-75.776 29.696-81.92 70.656L399.36 196.096c-7.68-38.912-41.984-66.56-81.92-66.56-46.08 0-82.944 37.376-83.456 83.456 0 30.72 16.896 58.88 44.032 73.216l-53.248 282.624c-60.928 7.68-103.936 63.488-95.744 124.416 7.168 55.296 54.784 96.768 110.592 96.768 31.744 0 62.464-13.824 83.456-37.888l373.248 86.016c7.68 54.272 53.76 96.256 110.08 96.256 61.44 0 111.104-49.664 111.104-111.104-0.512-61.44-50.176-111.104-111.616-111.104"  /></svg>