<?xml version="1.0" standalone="no"?><!DOCTYPE svg PUBLIC "-//W3C//DTD SVG 1.1//EN" "http://www.w3.org/Graphics/SVG/1.1/DTD/svg11.dtd"><svg class="icon" width="200px" height="200.00px" viewBox="0 0 1024 1024" version="1.1" xmlns="http://www.w3.org/2000/svg"><path fill="#515151" d="M796.16 158.72c28.672 0 51.2 23.552 51.2 51.712 0 28.672-23.04 51.712-51.2 51.712-28.672 0-51.2-23.552-51.2-51.712s22.528-51.712 51.2-51.712M323.072 454.656H132.608c-13.824 0-25.6 11.776-25.6 26.112s11.776 26.112 25.6 26.112H322.56c63.488 0 115.2-50.688 117.76-114.176h110.08c11.264 29.184 38.912 50.176 72.192 50.176 42.496 0 76.8-34.816 76.8-77.824s-34.304-77.824-76.8-77.824c-34.304 0-63.488 22.528-73.216 53.76h-107.52v-36.352c0-37.376 30.208-67.584 67.072-67.584h188.416c11.776 45.056 51.712 77.824 99.328 77.824 56.832 0 102.912-46.592 102.912-103.936s-46.592-103.936-102.912-103.936c-47.616 0-88.064 33.28-99.328 77.824H508.416c-65.536 0-118.272 53.76-118.272 119.808v36.352H132.608c-13.824 0-25.6 11.776-25.6 26.112s11.776 26.112 25.6 26.112H389.12c-2.048 34.304-31.232 61.44-66.048 61.44m-190.464 177.152h325.632c11.264 29.184 38.912 50.176 72.192 50.176 42.496 0 76.8-34.816 76.8-77.824s-34.304-77.824-76.8-77.824c-34.304 0-63.488 22.528-73.216 53.76H132.608c-13.824 0-25.6 11.776-25.6 26.112 0 13.824 11.776 25.6 25.6 25.6M796.16 865.28c-28.672 0-51.2-23.552-51.2-51.712s23.04-51.712 51.2-51.712c28.672 0 51.2 23.552 51.2 51.712s-23.04 51.712-51.2 51.712m0-155.648c-47.616 0-88.064 33.28-99.328 77.824h-56.32c-34.304 0-69.632-8.192-100.864-23.04L453.632 721.92c-38.4-18.432-80.384-28.16-122.88-28.16H132.608c-13.824 0-25.6 11.776-25.6 26.112s11.776 26.112 25.6 26.112h198.656c34.304 0 69.632 8.192 100.864 23.04l86.016 41.984c38.4 18.432 80.384 28.16 122.88 28.16h56.32c11.776 45.056 51.712 77.824 99.328 77.824 56.832 0 102.912-46.592 102.912-103.936-1.024-56.832-47.104-103.424-103.424-103.424"  /></svg>